<?xml version="1.0" encoding="utf-8"?>
<!-- Generator: Adobe Illustrator 25.4.1, SVG Export Plug-In . SVG Version: 6.00 Build 0)  -->
<svg version="1.1" xmlns="http://www.w3.org/2000/svg" xmlns:xlink="http://www.w3.org/1999/xlink" x="0px" y="0px"
	 viewBox="0 0 100 100" style="enable-background:new 0 0 100 100;" xml:space="preserve">
<style type="text/css">
	.st0{display:none;}
	.st1{fill:#FFFFFF;}
</style>
<g id="Background" class="st0">
</g>
<g id="Logotype">
	<g>
		<path class="st1" d="M95.5,82.4c-0.4,8.7-7.6,15.7-16.4,15.7H55c0.6,0,1.2,0,1.8-0.1h22.3C87.9,98,95.1,91.1,95.5,82.4z"/>
		<path class="st1" d="M79.1,4.5H18.7c-9.1,0-16.4,0-16.4,0v7.7c0,9.1,7.4,16.4,16.4,16.4h52.7c0,2.7,0,5.6,0,8.5H18.7
			c-9.1,0-16.4,7.4-16.4,16.4v27.8c0,9.1,7.4,16.4,16.4,16.4h12.5c0,0,0,0.1,0,0.1h47.9c8.8,0,16-6.9,16.4-15.6c0-0.3,0-0.6,0-0.9
			V21C95.5,11.9,88.2,4.5,79.1,4.5z M26.3,73.9V61.3h45.1v12.6H26.3z"/>
	</g>
</g>
</svg>
